<svg xmlns="http://www.w3.org/2000/svg" width="890.5000000000001" height="200.74265826538567"
     viewBox="0 0 369.6666666666667 83.33281228385277"
     class="looka-1j8o68f">
    <defs id="SvgjsDefs2113">
        <linearGradient id="SvgjsLinearGradient2118">
            <stop id="SvgjsStop2119" stop-color="#6d7cff" offset="0"></stop>
            <stop id="SvgjsStop2120" stop-color="#ff51ff" offset="1"></stop>
        </linearGradient>
        <linearGradient id="SvgjsLinearGradient2121">
            <stop id="SvgjsStop2122" stop-color="#00ddff" offset="0"></stop>
            <stop id="SvgjsStop2123" stop-color="#ff00d4" offset="1"></stop>
        </linearGradient>
    </defs>
    <g id="SvgjsG2114" featurekey="JKiIdh-0"
       transform="matrix(1.157542330766308,0,0,1.157542330766308,-16.208356842379388,-16.208887827125462)"
       fill="url(#SvgjsLinearGradient2118)">
        <g xmlns="http://www.w3.org/2000/svg">
            <path fill="url(#SvgjsLinearGradient2118)"
                  d="M30.595,14.008c-0.027,0-0.084,0-0.113,0.028c-0.339,0.057-0.622,0.425-0.622,0.793v5.978   c0,0.057,0,0.085,0,0.113h-4.161c-2.604,0-4.728,2.125-4.728,4.731v4.165c-0.028,0-0.057,0-0.085,0h-6.001   c-0.028,0-0.057,0-0.085,0c-0.396,0.028-0.764,0.425-0.764,0.85c0.028,0.396,0.424,0.765,0.849,0.737h6.001   c0.028,0.028,0.057,0.028,0.085,0v3.966c-0.028,0-0.057,0-0.085,0h-6.001c-0.028,0-0.057,0-0.085,0   c-0.396,0-0.764,0.425-0.764,0.821c0.028,0.425,0.424,0.793,0.849,0.765h6.001c0.028,0,0.057,0,0.085,0v3.966   c-0.028-0.028-0.057-0.028-0.085,0h-6.001c-0.057-0.028-0.113-0.028-0.142,0c-0.424,0.028-0.764,0.453-0.736,0.85   c0.057,0.425,0.453,0.765,0.877,0.736h6.001c0.028,0,0.057,0,0.085,0v3.91c-0.028,0-0.057,0-0.085,0h-6.001   c-0.028,0-0.057,0-0.085,0c-0.396,0.028-0.764,0.425-0.764,0.85c0.028,0.425,0.424,0.793,0.849,0.765h6.001   c0.028,0,0.057,0,0.085,0v3.938c-0.028,0-0.057,0-0.085,0h-6.001c-0.057,0-0.113,0-0.142,0c-0.424,0.057-0.764,0.453-0.736,0.878   c0.057,0.425,0.453,0.765,0.877,0.736h6.001c0.028,0,0.057,0,0.085,0v3.938c-0.028,0-0.057,0-0.085,0h-6.001   c-0.057,0-0.113,0-0.142,0c-0.424,0.028-0.764,0.453-0.736,0.878c0.057,0.426,0.453,0.766,0.877,0.737h6.001   c0.028,0,0.057,0,0.085,0v3.909c-0.028,0-0.057,0-0.085,0h-6.001c-0.028,0-0.057,0-0.085,0c-0.396,0.028-0.764,0.425-0.764,0.85   c0.028,0.397,0.424,0.766,0.849,0.737h6.001c0.028,0,0.057,0,0.085,0v3.966c-0.028,0-0.057,0-0.085,0h-6.001   c-0.057,0-0.113,0-0.142,0c-0.424,0.028-0.764,0.453-0.736,0.879c0.057,0.396,0.453,0.765,0.877,0.708h6.001   c0.028,0,0.057,0,0.085,0v4.165c0,2.635,2.123,4.73,4.728,4.73h4.161c0,0.028,0,0.085,0,0.113v5.979   c0,0.425,0.368,0.821,0.792,0.821c0.426,0,0.821-0.396,0.821-0.821v-5.979c0-0.028,0-0.085,0-0.113h3.935c0,0.028,0,0.085,0,0.113   v5.979c0,0.425,0.369,0.821,0.793,0.821c0.425,0,0.821-0.396,0.793-0.821v-5.979c0-0.028,0-0.085,0-0.113h3.963   c0,0.028,0,0.085,0,0.113v5.979c0,0.425,0.368,0.821,0.793,0.821c0.424,0,0.793-0.396,0.793-0.821v-5.979c0-0.028,0-0.085,0-0.113   h3.934c0,0.028,0,0.085,0,0.113v5.979c-0.027,0.425,0.369,0.821,0.793,0.821c0.425,0,0.793-0.396,0.793-0.821v-5.979   c0-0.028,0-0.085,0-0.113h3.934c0,0.028,0,0.085,0,0.113v5.979c0,0.425,0.396,0.821,0.821,0.821s0.792-0.396,0.792-0.821v-5.979   c0-0.028,0-0.085,0-0.113h3.936c0,0.028,0,0.085,0,0.113v5.979c0,0.425,0.396,0.821,0.792,0.821c0.425,0,0.821-0.396,0.821-0.821   v-5.979c0-0.028,0-0.085,0-0.113h3.906c0,0.028,0,0.085,0,0.113v5.979c0,0.425,0.368,0.821,0.793,0.821s0.821-0.396,0.821-0.821   v-5.979c0-0.028,0-0.085,0-0.113h3.935c0,0.028,0,0.085,0,0.113v5.979c0,0.425,0.368,0.821,0.792,0.821   c0.425,0,0.821-0.396,0.793-0.821v-5.979c0-0.028,0-0.085,0-0.113h4.189c2.604,0,4.699-2.096,4.699-4.73v-4.165   c0.057,0,0.085,0,0.113,0h6.001c0.396,0,0.793-0.368,0.793-0.793c0-0.426-0.396-0.794-0.793-0.794H79.2c-0.028,0-0.057,0-0.113,0   v-3.966c0.057,0,0.085,0,0.113,0h6.001c0.396,0.028,0.793-0.368,0.793-0.794c0-0.425-0.396-0.793-0.793-0.793H79.2   c-0.028,0-0.057,0-0.085,0c0,0,0,0-0.028,0V59.14c0.057,0,0.085,0,0.113,0h6.001c0.396,0,0.793-0.397,0.793-0.822   s-0.396-0.793-0.793-0.793H79.2c-0.028,0-0.057,0-0.113,0v-3.938c0.057,0,0.085,0,0.113,0h6.001c0.396,0,0.793-0.396,0.793-0.821   c0-0.396-0.396-0.793-0.793-0.793H79.2c-0.028,0-0.057,0-0.113,0v-3.938c0.057,0,0.085,0,0.113,0h6.001   c0.396,0,0.793-0.369,0.793-0.793s-0.396-0.822-0.793-0.822H79.2c-0.028,0-0.057,0-0.085,0c0,0,0,0-0.028,0v-3.91   c0.057,0,0.085,0,0.113,0h6.001c0.396,0,0.793-0.368,0.793-0.793c0-0.425-0.396-0.822-0.793-0.793H79.2   c-0.028-0.028-0.057-0.028-0.113,0v-3.966c0.057,0,0.085,0,0.113,0h6.001c0.396,0,0.793-0.368,0.793-0.793   c0-0.425-0.396-0.793-0.793-0.793H79.2c-0.028,0-0.057,0-0.085,0c0,0,0,0-0.028,0v-3.966c0.057,0.028,0.085,0.028,0.113,0h6.001   c0.396,0.028,0.793-0.369,0.793-0.793s-0.396-0.793-0.793-0.793H79.2c-0.028,0-0.057,0-0.085,0c0,0,0,0-0.028,0v-4.165   c0-2.606-2.095-4.731-4.699-4.731h-4.189c0-0.028,0-0.057,0-0.113V14.83c0.028-0.482-0.481-0.907-0.962-0.793   c-0.368,0.057-0.623,0.425-0.623,0.793v5.978c0,0.057,0,0.085,0,0.113h-3.935c0-0.028,0-0.057,0-0.113V14.83   c0-0.482-0.51-0.907-0.991-0.793c-0.34,0.057-0.623,0.425-0.623,0.793v5.978c0,0.057,0,0.085,0,0.113h-3.906   c0-0.028,0-0.057,0-0.113V14.83c0-0.482-0.51-0.907-0.991-0.793c-0.339,0.057-0.622,0.425-0.622,0.793v5.978   c0,0.057,0,0.085,0,0.113h-3.936c0-0.028,0-0.057,0-0.113V14.83c0-0.482-0.509-0.907-0.99-0.793   c-0.34,0.057-0.623,0.425-0.623,0.793v5.978c0,0.057,0,0.085,0,0.113h-3.934c0-0.028,0-0.057,0-0.113V14.83   c0.028-0.482-0.51-0.907-0.963-0.793c-0.367,0.057-0.65,0.425-0.623,0.793v5.978c0,0.057,0,0.085,0,0.113h-3.934   c0-0.028,0-0.057,0-0.113V14.83c0.027-0.482-0.51-0.907-0.963-0.793c-0.368,0.057-0.651,0.425-0.623,0.793v5.978   c0,0.057,0,0.085,0,0.113h-3.963c0-0.028,0-0.057,0-0.113V14.83c0.028-0.482-0.481-0.907-0.963-0.793   c-0.367,0.057-0.623,0.425-0.623,0.793v5.978c0,0.057,0,0.085,0,0.113h-3.935c0-0.028,0-0.057,0-0.113V14.83   C31.473,14.376,31.048,13.951,30.595,14.008L30.595,14.008z M25.699,22.507h48.689c1.755,0,3.114,1.388,3.114,3.145v48.702   c0,1.756-1.359,3.145-3.114,3.145H25.699c-1.756,0-3.114-1.389-3.114-3.145V25.652C22.584,23.896,23.943,22.507,25.699,22.507   L25.699,22.507z M30.511,29.816c-0.368,0.057-0.651,0.425-0.651,0.793v38.786c0,0.425,0.396,0.793,0.792,0.793h38.753   c0.425,0,0.793-0.368,0.793-0.793V30.61c0-0.425-0.368-0.793-0.793-0.793H30.652c0,0-0.027,0-0.057,0   C30.568,29.816,30.539,29.816,30.511,29.816L30.511,29.816z M31.473,31.403h37.14v37.198h-37.14V31.403L31.473,31.403z"></path>
        </g>
    </g>
    <g id="SvgjsG2115" featurekey="A7DQL5-0"
       transform="matrix(3.194375722871236,0,0,3.194375722871236,102.93630047090551,3.4558476661605386)"
       fill="url(#SvgjsLinearGradient2121)">
        <path d="M6.94 19.96 l0.039942 -0.63998 c-1.96 -0.13334 -3.52 -0.94668 -4.68 -2.44 c-1.1067 -1.3867 -1.66 -3.06 -1.66 -5.02 c0 -1.0267 0.16666 -1.9167 0.5 -2.67 s0.83334 -1.4833 1.5 -2.19 c1.3333 -1.4 3 -2.1 5 -2.1 c1.2133 0 2.3066 0.26 3.28 0.78 s1.7667 1.2467 2.38 2.18 l0.48 -0.38 c-0.66666 -1.0133 -1.5333 -1.8067 -2.6 -2.38 c-1.0133 -0.54666 -2.16 -0.81332 -3.44 -0.79998 c-1.08 0 -2.0934 0.18334 -3.04 0.55 s-1.78 0.93 -2.5 1.69 c-0.72 0.77334 -1.2633 1.5733 -1.63 2.4 s-0.55 1.8 -0.55 2.92 c0.01334 2.12 0.62 3.9334 1.82 5.44 c1.28 1.6133 2.98 2.5 5.1 2.66 z M8.16 19.98002 c1.0933 -0.06666 2.0934 -0.32664 3 -0.77998 c1.04 -0.53334 1.9133 -1.2867 2.62 -2.26 l-0.46 -0.4 c-0.64 0.88 -1.4467 1.5733 -2.42 2.08 c-0.84 0.42666 -1.76 0.66666 -2.76 0.72 z M21.72 6.140000000000001 c0 0.08 0.23666 0.84334 0.71 2.29 s0.99 3.03 1.55 4.75 s1.3133 3.9934 2.26 6.82 l0.86 0 l-5.3 -15.76 l-0.16 0 l-5.26 15.76 l0.82 0 z M21.36 15.52 l-0.72 0 l1.2 4.48 l0.72 0 z M34.1 15.219999999999999 c0.85334 -0.48 1.5067 -1.1567 1.96 -2.03 s0.68 -1.8633 0.68 -2.97 l0 -0.28 c0 -1.64 -0.49 -3 -1.47 -4.08 s-2.3766 -1.62 -4.19 -1.62 l-1.38 0 l0 6.34 c0.22666 0.01334 0.45332 0.02 0.67998 0.02 l0 -5.72 l0.66 0 c1.64 0 2.88 0.47666 3.72 1.43 s1.26 2.1766 1.26 3.67 l0 0.22 c0 1.48 -0.42 2.6934 -1.26 3.64 s-2.08 1.42 -3.72 1.42 l-0.66 0 l0 0 l-0.68 0 l0 0.64 c0.4 0.01334 0.66666 0.02 0.8 0.02 l0.58 0 c0.92 0 1.7267 -0.14 2.42 -0.42 l2.48 4.5 l0.8 0 z M39.94 14.16 l0 -9.36 l4.8 0 l0 -0.56 l-5.36 0 l0 9.92 l0.56 0 z M44.94 20 l0 -0.54 l-5 0 l0 -4.14 l0.8 0 l0 -0.54 l-1.36 0 l0 5.22 l5.56 0 z M48.099999999999994 14.16 l0 -9.36 l4.8 0 l0 -0.56 l-5.36 0 l0 9.92 l0.56 0 z M53.099999999999994 20 l0 -0.54 l-5 0 l0 -4.14 l0.8 0 l0 -0.54 l-1.36 0 l0 5.22 l5.56 0 z M60.09999999999999 15.219999999999999 c0.85334 -0.48 1.5067 -1.1567 1.96 -2.03 s0.68 -1.8633 0.68 -2.97 l0 -0.28 c0 -1.64 -0.49 -3 -1.47 -4.08 s-2.3766 -1.62 -4.19 -1.62 l-1.38 0 l0 6.34 c0.22666 0.01334 0.45332 0.02 0.67998 0.02 l0 -5.72 l0.66 0 c1.64 0 2.88 0.47666 3.72 1.43 s1.26 2.1766 1.26 3.67 l0 0.22 c0 1.48 -0.42 2.6934 -1.26 3.64 s-2.08 1.42 -3.72 1.42 l-0.66 0 l0 0 l-0.68 0 l0 0.64 c0.4 0.01334 0.66666 0.02 0.8 0.02 l0.58 0 c0.92 0 1.7267 -0.14 2.42 -0.42 l2.48 4.5 l0.8 0 z M65.38 4.24 l0 15.76 l0.52 0 l0 -15.76 l-0.52 0 z M75.5 20 c2.2134 0 4.1 -0.78 5.66 -2.34 c0.77334 -0.76 1.3567 -1.58 1.75 -2.46 s0.59 -1.88 0.59 -3 c0 -2.2266 -0.78 -4.1066 -2.34 -5.64 c-1.56 -1.52 -3.4866 -2.2866 -5.78 -2.3 c-1.4133 0.01334 -2.74 0.36668 -3.98 1.06 c-1.2133 0.70666 -2.18 1.6867 -2.9 2.94 l0.58 0.32 c0.65334 -1.16 1.54 -2.06 2.66 -2.7 c1.1067 -0.64 2.32 -0.96666 3.64 -0.98 c2.1334 0.01334 3.9066 0.72668 5.32 2.14 c1.4133 1.3867 2.1266 3.1066 2.14 5.16 c0 1.0267 -0.18 1.9433 -0.54 2.75 s-0.88666 1.5633 -1.58 2.27 c-1.4267 1.4267 -3.1666 2.14 -5.22 2.14 c-1.28 0 -2.44 -0.27334 -3.48 -0.82 l-0.3 0.58 c1.1333 0.58666 2.3934 0.88 3.78 0.88 z"></path>
    </g>
</svg>